<svg width="24" height="24" viewBox="0 0 24 24" xmlns="http://www.w3.org/2000/svg" aria-hidden="true">
  <path fill="#C5C5C5" d="M2 20.7c3.05-1.38 6.13-2.14 9.25-2.3 3.05-.16 6.04.25 8.95 1.2V9.15l-4.95 4.8v5.25c-2.38-.63-4.79-.9-7.2-.78-2.06.1-4.08.44-6.05 1.02v1.26Z"/>
  <path fill="#C5C5C5" d="M2 18.6c2.86-1.08 5.75-1.7 8.67-1.86 2.67-.14 5.28.1 7.83.72V5.45h-.6c-1.43 3.8-3.45 6.74-6.05 8.82v3.14c-2.02-.25-4.03-.3-6.03-.14-1.29.1-2.56.3-3.82.6v.73Z"/>
  <path fill="#C5C5C5" d="M2 16.55c2.36-.85 4.78-1.36 7.25-1.53 1.73-.12 3.45-.06 5.15.18V2.65h-.88C12.76 6.5 11.4 9.77 9.44 12.47 7.48 15.17 4.99 17.48 2 19.4v-2.85Z"/>
</svg>
